# Blender v2.83.4 OBJ File: '3D-design-blender.blend'
# www.blender.org
mtllib KotakEmpat.mtl
o KotakEmpat_Cube.004
v -25.819073 1.500000 92.521866
v -25.819073 4.000000 92.521866
v -25.819073 1.500000 42.521866
v -25.819073 4.000000 42.521866
v 24.180927 1.500000 92.521866
v 24.180927 4.000000 92.521866
v 24.180927 1.500000 42.521866
v 24.180927 4.000000 42.521866
v -4.974455 4.000000 69.656960
v 0.156360 4.000000 69.656960
v 0.156360 4.000000 62.402672
v 1.042153 4.000000 58.179008
v 3.014683 4.000000 58.179008
v 3.014683 4.000000 69.656960
v 5.377800 4.000000 69.656960
v 5.377800 4.000000 72.216644
v 3.014683 4.000000 72.216644
v 3.014683 4.000000 76.864967
v 0.156360 4.000000 76.864967
v 0.156360 4.000000 72.216644
v -7.296515 4.000000 72.216644
v -7.296515 4.000000 70.083809
v -25.819073 29.000000 92.521866
v -25.819073 29.000000 42.521866
v 24.180927 29.000000 42.521866
v 24.180927 29.000000 92.521866
v -4.974455 29.000000 69.656960
v 0.156360 29.000000 69.656960
v 0.156360 29.000000 62.402672
v 1.042153 29.000000 58.179008
v 3.014683 29.000000 58.179008
v 3.014683 29.000000 69.656960
v 5.377800 29.000000 69.656960
v 5.377800 29.000000 72.216644
v 3.014683 29.000000 72.216644
v 3.014683 29.000000 76.864967
v 0.156360 29.000000 76.864967
v 0.156360 29.000000 72.216644
v -7.296515 29.000000 72.216644
v -7.296515 29.000000 70.083809
vt 0.375000 0.000000
vt 0.625000 0.000000
vt 0.625000 0.250000
vt 0.375000 0.250000
vt 0.625000 0.500000
vt 0.375000 0.500000
vt 0.625000 0.750000
vt 0.375000 0.750000
vt 0.625000 1.000000
vt 0.375000 1.000000
vt 0.125000 0.500000
vt 0.125000 0.750000
vt 0.730831 0.578286
vt 0.730831 0.635676
vt 0.730831 0.635676
vt 0.730831 0.578286
vt 0.745123 0.648474
vt 0.782387 0.648474
vt 0.782387 0.648474
vt 0.745123 0.648474
vt 0.745123 0.671715
vt 0.730831 0.671715
vt 0.730831 0.648474
vt 0.719016 0.648474
vt 0.719016 0.635676
vt 0.745123 0.599404
vt 0.745123 0.635675
vt 0.770777 0.635675
vt 0.782387 0.637810
vt 0.625000 0.500000
vt 0.625000 0.750000
vt 0.740694 0.578286
vt 0.875000 0.500000
vt 0.875000 0.750000
vt 0.782387 0.637810
vt 0.740694 0.578286
vt 0.719016 0.635676
vt 0.719016 0.648474
vt 0.730831 0.648474
vt 0.730831 0.671715
vt 0.745123 0.671715
vt 0.770777 0.635675
vt 0.745123 0.635675
vt 0.745123 0.599404
vt 0.625000 0.000000
vt 0.625000 0.250000
vt 0.625000 1.000000
vn -1.0000 0.0000 0.0000
vn 0.0000 0.0000 -1.0000
vn 1.0000 0.0000 0.0000
vn 0.0000 0.0000 1.0000
vn 0.0000 -1.0000 0.0000
vn 0.0000 1.0000 0.0000
vn 0.8191 0.0000 0.5737
vn -0.8164 0.0000 -0.5774
usemtl None
s off
f 1/1/1 2/2/1 4/3/1 3/4/1
f 3/4/2 4/3/2 8/5/2 7/6/2
f 7/6/3 8/5/3 6/7/3 5/8/3
f 5/8/4 6/7/4 2/9/4 1/10/4
f 3/11/5 7/6/5 5/8/5 1/12/5
f 13/13/1 14/14/1 32/15/1 31/16/1
f 20/17/2 21/18/2 39/19/2 38/20/2
f 20/17/6 19/21/6 18/22/6 17/23/6 16/24/6 15/25/6 14/14/6 13/13/6 11/26/6 10/27/6 9/28/6 22/29/6 21/18/6
f 6/7/3 8/5/3 25/30/3 26/31/3
f 9/28/6 11/26/6 13/13/6 12/32/6 22/29/6
f 25/30/6 24/33/6 23/34/6 39/19/6 40/35/6 30/36/6 31/16/6 32/15/6 33/37/6 26/31/6
f 26/31/6 33/37/6 34/38/6 35/39/6 36/40/6 37/41/6 38/20/6 39/19/6 23/34/6
f 27/42/6 28/43/6 29/44/6
f 21/18/3 22/29/3 40/35/3 39/19/3
f 4/3/1 2/2/1 23/45/1 24/46/1
f 14/14/4 15/25/4 33/37/4 32/15/4
f 22/29/7 12/32/7 30/36/7 40/35/7
f 15/25/1 16/24/1 34/38/1 33/37/1
f 2/9/4 6/7/4 26/31/4 23/47/4
f 16/24/2 17/23/2 35/39/2 34/38/2
f 9/28/4 10/27/4 28/43/4 27/42/4
f 8/5/2 4/3/2 24/46/2 25/30/2
f 17/23/1 18/22/1 36/40/1 35/39/1
f 10/27/3 11/26/3 29/44/3 28/43/3
f 18/22/2 19/21/2 37/41/2 36/40/2
f 11/26/8 9/28/8 27/42/8 29/44/8
f 19/21/3 20/17/3 38/20/3 37/41/3
f 12/32/4 13/13/4 31/16/4 30/36/4
