# Blender v2.83.4 OBJ File: 'blender3dbentuk.blend'
# www.blender.org
mtllib empat.mtl
o Cube.028_Cube.032
v 0.017280 -0.646190 -0.688233
v 0.017280 -0.646190 0.069040
v -0.518325 -0.646190 0.069040
v 0.079167 -0.646190 -0.925654
v 0.202941 -0.646190 -0.925654
v 0.202941 -0.646190 0.069040
v 0.407731 -0.646190 0.069040
v 0.407731 -0.646190 0.228822
v 0.202941 -0.646190 0.228822
v 0.202941 -0.646190 0.631651
v 0.017280 -0.646190 0.631651
v 0.017280 -0.646190 0.228822
v -0.628597 -0.646190 0.228822
v -0.628597 -0.646190 0.084793
v 0.017280 0.803810 -0.688233
v 0.017280 0.803810 0.069040
v -0.518325 0.803810 0.069040
v 0.079167 0.803810 -0.925654
v 0.202941 0.803810 -0.925654
v 0.202941 0.803810 0.069040
v 0.407731 0.803810 0.069040
v 0.407731 0.803810 0.228822
v 0.202941 0.803810 0.228822
v 0.202941 0.803810 0.631651
v 0.017280 0.803810 0.631651
v 0.017280 0.803810 0.228822
v -0.628597 0.803810 0.228822
v -0.628597 0.803810 0.084793
vt 0.736075 0.671978
vt 0.816810 0.671978
vt 0.816810 0.653974
vt 0.803026 0.652005
vt 0.736075 0.652005
vt 0.736075 0.557346
vt 0.712868 0.527668
vt 0.712868 0.652005
vt 0.687269 0.652005
vt 0.687269 0.671978
vt 0.712868 0.671978
vt 0.712868 0.722332
vt 0.736075 0.722332
vt 0.728339 0.527668
vt 0.736075 0.671978
vt 0.736075 0.722332
vt 0.712868 0.722332
vt 0.712868 0.671978
vt 0.687269 0.671978
vt 0.687269 0.652005
vt 0.712868 0.652005
vt 0.712868 0.527668
vt 0.736075 0.557346
vt 0.736075 0.652005
vt 0.803026 0.652005
vt 0.816810 0.653974
vt 0.816810 0.671978
vt 0.728339 0.527668
vn 0.0000 -1.0000 -0.0000
vn 0.0000 1.0000 0.0000
vn 0.0000 0.0000 1.0000
vn -1.0000 0.0000 0.0000
vn 1.0000 0.0000 0.0000
vn 0.0000 0.0000 -1.0000
vn 0.8164 0.0000 0.5774
vn -0.8191 0.0000 -0.5737
usemtl None
s off
f 12/1/1 13/2/1 14/3/1 3/4/1 2/5/1 1/6/1 5/7/1 6/8/1 7/9/1 8/10/1 9/11/1 10/12/1 11/13/1
f 3/4/1 14/3/1 4/14/1 5/7/1 1/6/1
f 26/15/2 25/16/2 24/17/2 23/18/2 22/19/2 21/20/2 20/21/2 19/22/2 15/23/2 16/24/2 17/25/2 28/26/2 27/27/2
f 17/25/2 15/23/2 19/22/2 18/28/2 28/26/2
f 9/11/3 8/10/3 22/19/3 23/18/3
f 1/6/4 2/5/4 16/24/4 15/23/4
f 10/12/5 9/11/5 23/18/5 24/17/5
f 2/5/6 3/4/6 17/25/6 16/24/6
f 11/13/3 10/12/3 24/17/3 25/16/3
f 3/4/7 1/6/7 15/23/7 17/25/7
f 12/1/4 11/13/4 25/16/4 26/15/4
f 5/7/6 4/14/6 18/28/6 19/22/6
f 13/2/3 12/1/3 26/15/3 27/27/3
f 6/8/5 5/7/5 19/22/5 20/21/5
f 14/3/4 13/2/4 27/27/4 28/26/4
f 7/9/6 6/8/6 20/21/6 21/20/6
f 4/14/8 14/3/8 28/26/8 18/28/8
f 8/10/5 7/9/5 21/20/5 22/19/5
