# Blender v2.83.4 OBJ File: 'blender3dbentuk.blend'
# www.blender.org
mtllib kotak_tujuh.mtl
o Cube.033_Cube.037
v -0.773375 -0.781579 1.446293
v -0.773375 -0.681579 1.446293
v -0.773375 -0.781579 -0.553707
v -0.773375 -0.681579 -0.553707
v 1.226625 -0.781579 1.446293
v 1.226625 -0.681579 1.446293
v 1.226625 -0.781579 -0.553707
v 1.226625 -0.681579 -0.553707
v -0.073809 -0.681579 -0.087062
v -0.089304 -0.681579 -0.078044
v -0.104284 -0.681579 -0.068245
v -0.118748 -0.681579 -0.057665
v -0.132696 -0.681579 -0.046303
v -0.146128 -0.681579 -0.034160
v -0.159044 -0.681579 -0.021236
v -0.171445 -0.681579 -0.007530
v -0.183331 -0.681579 0.006957
v -0.194700 -0.681579 0.022226
v -0.205553 -0.681579 0.038276
v -0.215892 -0.681579 0.055107
v -0.225714 -0.681579 0.072720
v -0.258345 -0.681579 0.060343
v -0.112067 -0.681579 -0.300853
v 0.705969 -0.681579 -0.300853
v 0.705969 -0.681579 -0.258095
v 0.197369 -0.681579 1.256451
v 0.071344 -0.681579 1.256451
v 0.527058 -0.681579 -0.117442
v 0.107351 -0.681579 -0.117442
v 0.086668 -0.681579 -0.117231
v 0.067000 -0.681579 -0.116598
v 0.048348 -0.681579 -0.115543
v 0.030712 -0.681579 -0.114067
v 0.014091 -0.681579 -0.112168
v -0.001514 -0.681579 -0.109847
v -0.016102 -0.681579 -0.107104
v -0.029676 -0.681579 -0.103940
v -0.042232 -0.681579 -0.100353
v -0.053774 -0.681579 -0.096344
v -0.064300 -0.681579 -0.091914
v -0.773375 0.768421 1.446293
v -0.773375 0.768421 -0.553707
v 1.226625 0.768421 -0.553707
v 1.226625 0.768421 1.446293
v -0.073809 0.768421 -0.087062
v -0.089304 0.768421 -0.078044
v -0.104284 0.768421 -0.068245
v -0.118748 0.768421 -0.057665
v -0.132696 0.768421 -0.046303
v -0.146128 0.768421 -0.034160
v -0.159044 0.768421 -0.021236
v -0.171445 0.768421 -0.007530
v -0.183331 0.768421 0.006957
v -0.194700 0.768421 0.022226
v -0.205553 0.768421 0.038276
v -0.215892 0.768421 0.055107
v -0.225714 0.768421 0.072720
v -0.258345 0.768421 0.060343
v -0.112067 0.768421 -0.300853
v 0.705969 0.768421 -0.300853
v 0.705969 0.768421 -0.258095
v 0.197369 0.768421 1.256451
v 0.071344 0.768421 1.256451
v 0.527058 0.768421 -0.117442
v 0.107351 0.768421 -0.117442
v 0.086668 0.768421 -0.117231
v 0.067000 0.768421 -0.116598
v 0.048348 0.768421 -0.115543
v 0.030712 0.768421 -0.114067
v 0.014091 0.768421 -0.112168
v -0.001514 0.768421 -0.109847
v -0.016102 0.768421 -0.107104
v -0.029676 0.768421 -0.103940
v -0.042232 0.768421 -0.100353
v -0.053774 0.768421 -0.096344
v -0.064300 0.768421 -0.091914
vt 0.375000 0.000000
vt 0.625000 0.000000
vt 0.625000 0.250000
vt 0.375000 0.250000
vt 0.625000 0.500000
vt 0.375000 0.500000
vt 0.625000 0.750000
vt 0.375000 0.750000
vt 0.625000 1.000000
vt 0.375000 1.000000
vt 0.125000 0.500000
vt 0.125000 0.750000
vt 0.780341 0.555825
vt 0.782038 0.556221
vt 0.782038 0.556221
vt 0.780341 0.555825
vt 0.787554 0.558331
vt 0.789491 0.559458
vt 0.789491 0.559458
vt 0.787554 0.558331
vt 0.792336 0.531607
vt 0.810621 0.576756
vt 0.806542 0.578303
vt 0.805315 0.576102
vt 0.804022 0.573998
vt 0.802666 0.571992
vt 0.801244 0.570083
vt 0.799759 0.568272
vt 0.798209 0.566559
vt 0.796594 0.564943
vt 0.794915 0.563425
vt 0.793172 0.562005
vt 0.791363 0.560683
vt 0.786366 0.557724
vt 0.785050 0.557170
vt 0.783607 0.556669
vt 0.778517 0.555483
vt 0.776567 0.555192
vt 0.774489 0.554955
vt 0.772285 0.554770
vt 0.769953 0.554639
vt 0.767495 0.554559
vt 0.764909 0.554533
vt 0.712446 0.554533
vt 0.769410 0.726270
vt 0.753657 0.726270
vt 0.690082 0.536952
vt 0.690082 0.531607
vt 0.625000 0.500000
vt 0.690082 0.531607
vt 0.690082 0.536952
vt 0.753657 0.726270
vt 0.769410 0.726270
vt 0.712446 0.554533
vt 0.764909 0.554533
vt 0.767495 0.554559
vt 0.769953 0.554639
vt 0.772285 0.554770
vt 0.774489 0.554955
vt 0.776567 0.555192
vt 0.778517 0.555483
vt 0.783607 0.556669
vt 0.785050 0.557170
vt 0.786366 0.557724
vt 0.791363 0.560683
vt 0.793172 0.562005
vt 0.794915 0.563425
vt 0.796594 0.564943
vt 0.798209 0.566559
vt 0.799759 0.568272
vt 0.801244 0.570083
vt 0.802666 0.571992
vt 0.804022 0.573998
vt 0.805315 0.576102
vt 0.806542 0.578303
vt 0.810621 0.576756
vt 0.875000 0.500000
vt 0.875000 0.750000
vt 0.625000 0.750000
vt 0.792336 0.531607
vt 0.625000 0.000000
vt 0.625000 0.250000
vt 0.625000 1.000000
vn -1.0000 0.0000 0.0000
vn 0.0000 0.0000 -1.0000
vn 1.0000 0.0000 0.0000
vn 0.0000 0.0000 1.0000
vn 0.0000 -1.0000 0.0000
vn -0.2271 0.0000 -0.9739
vn -0.5030 0.0000 -0.8643
vn 0.0000 1.0000 0.0000
vn -0.5474 0.0000 -0.8369
vn -0.2747 0.0000 -0.9615
vn -0.5904 0.0000 -0.8071
vn -0.3281 0.0000 -0.9446
vn -0.9480 0.0000 -0.3183
vn -0.6316 0.0000 -0.7753
vn -0.3880 0.0000 -0.9217
vn -0.6706 0.0000 -0.7418
vn -0.4545 0.0000 -0.8907
vn 0.9491 0.0000 0.3148
vn -0.7073 0.0000 -0.7069
vn -0.7415 0.0000 -0.6709
vn -0.0102 0.0000 -0.9999
vn -0.7731 0.0000 -0.6343
vn -0.0322 0.0000 -0.9995
vn -0.8021 0.0000 -0.5972
vn -0.0565 0.0000 -0.9984
vn -0.8284 0.0000 -0.5602
vn -0.0834 0.0000 -0.9965
vn -0.8521 0.0000 -0.5234
vn -0.1135 0.0000 -0.9935
vn -0.8734 0.0000 -0.4871
vn -0.1471 0.0000 -0.9891
vn 0.3547 0.0000 -0.9350
vn -0.1848 0.0000 -0.9828
vn 0.9269 0.0000 0.3754
usemtl None
s off
f 1/1/1 2/2/1 4/3/1 3/4/1
f 3/4/2 4/3/2 8/5/2 7/6/2
f 7/6/3 8/5/3 6/7/3 5/8/3
f 5/8/4 6/7/4 2/9/4 1/10/4
f 3/11/5 7/6/5 5/8/5 1/12/5
f 36/13/6 37/14/6 73/15/6 72/16/6
f 9/17/7 10/18/7 46/19/7 45/20/7
f 23/21/8 22/22/8 21/23/8 20/24/8 19/25/8 18/26/8 17/27/8 16/28/8 15/29/8 14/30/8 13/31/8 12/32/8 11/33/8 10/18/8 9/17/8 40/34/8 39/35/8 38/36/8 37/14/8 36/13/8 35/37/8 34/38/8 33/39/8 32/40/8 31/41/8 30/42/8 29/43/8 28/44/8 27/45/8 26/46/8 25/47/8 24/48/8
f 43/49/8 60/50/8 61/51/8 62/52/8 63/53/8 64/54/8 65/55/8 66/56/8 67/57/8 68/58/8 69/59/8 70/60/8 71/61/8 72/16/8 73/15/8 74/62/8 75/63/8 76/64/8 45/20/8 46/19/8 47/65/8 48/66/8 49/67/8 50/68/8 51/69/8 52/70/8 53/71/8 54/72/8 55/73/8 56/74/8 57/75/8 58/76/8 42/77/8 41/78/8 44/79/8
f 42/77/8 58/76/8 59/80/8 60/50/8 43/49/8
f 23/21/4 24/48/4 60/50/4 59/80/4
f 10/18/9 11/33/9 47/65/9 46/19/9
f 37/14/10 38/36/10 74/62/10 73/15/10
f 24/48/1 25/47/1 61/51/1 60/50/1
f 11/33/11 12/32/11 48/66/11 47/65/11
f 38/36/12 39/35/12 75/63/12 74/62/12
f 25/47/13 26/46/13 62/52/13 61/51/13
f 12/32/14 13/31/14 49/67/14 48/66/14
f 39/35/15 40/34/15 76/64/15 75/63/15
f 4/3/1 2/2/1 41/81/1 42/82/1
f 26/46/2 27/45/2 63/53/2 62/52/2
f 13/31/16 14/30/16 50/68/16 49/67/16
f 40/34/17 9/17/17 45/20/17 76/64/17
f 27/45/18 28/44/18 64/54/18 63/53/18
f 14/30/19 15/29/19 51/69/19 50/68/19
f 28/44/2 29/43/2 65/55/2 64/54/2
f 15/29/20 16/28/20 52/70/20 51/69/20
f 8/5/2 4/3/2 42/82/2 43/49/2
f 29/43/21 30/42/21 66/56/21 65/55/21
f 16/28/22 17/27/22 53/71/22 52/70/22
f 30/42/23 31/41/23 67/57/23 66/56/23
f 17/27/24 18/26/24 54/72/24 53/71/24
f 31/41/25 32/40/25 68/58/25 67/57/25
f 18/26/26 19/25/26 55/73/26 54/72/26
f 6/7/3 8/5/3 43/49/3 44/79/3
f 32/40/27 33/39/27 69/59/27 68/58/27
f 19/25/28 20/24/28 56/74/28 55/73/28
f 33/39/29 34/38/29 70/60/29 69/59/29
f 20/24/30 21/23/30 57/75/30 56/74/30
f 34/38/31 35/37/31 71/61/31 70/60/31
f 21/23/32 22/22/32 58/76/32 57/75/32
f 2/9/4 6/7/4 44/79/4 41/83/4
f 35/37/33 36/13/33 72/16/33 71/61/33
f 22/22/34 23/21/34 59/80/34 58/76/34
