# Blender v2.83.4 OBJ File: ''
# www.blender.org
mtllib Layang.mtl
o Layang_Circle.009
v 0.900547 -0.000015 91.303802
v 9.073814 -0.000017 101.681435
v 0.900547 -0.000019 116.740242
v -7.272722 -0.000017 101.681435
v 0.900547 19.999985 91.303802
v -7.272722 19.999983 101.681435
v 0.900547 19.999981 116.740242
v 9.073814 19.999983 101.681435
vt 0.500000 1.000000
vt 1.000000 0.500000
vt 0.500000 0.000000
vt 0.000000 0.500000
vt 0.500000 1.000000
vt 0.000000 0.500000
vt 0.500000 0.000000
vt 1.000000 0.500000
vn 0.0000 -1.0000 -0.0000
vn 0.0000 1.0000 0.0000
vn -0.7856 0.0000 -0.6187
vn 0.7856 0.0000 -0.6187
vn -0.8789 0.0000 0.4770
vn 0.8789 0.0000 0.4770
usemtl None.001
s 1
f 1/1/1 2/2/1 3/3/1 4/4/1
f 5/5/2 6/6/2 7/7/2 8/8/2
f 1/1/3 4/4/3 6/6/3 5/5/3
f 2/2/4 1/1/4 5/5/4 8/8/4
f 4/4/5 3/3/5 7/7/5 6/6/5
f 3/3/6 2/2/6 8/8/6 7/7/6
