# Blender v2.83.4 OBJ File: ''
# www.blender.org
mtllib Lingkaran.mtl
o Lingkaran_Circle.003
v -0.018564 0.000025 -150.132324
v 2.091837 0.000025 -149.924469
v 4.121149 0.000025 -149.308899
v 5.991381 0.000025 -148.309235
v 7.630648 0.000024 -146.963928
v 8.975962 0.000024 -145.324661
v 9.975622 0.000024 -143.454437
v 10.591211 0.000023 -141.425125
v 10.799070 0.000023 -139.314697
v 10.591215 0.000023 -137.204285
v 9.975634 0.000022 -135.174973
v 8.975977 0.000022 -133.304749
v 7.630663 0.000022 -131.665482
v 5.991396 0.000021 -130.320160
v 4.121172 0.000021 -129.320496
v 2.091856 0.000021 -128.704910
v -0.018560 0.000021 -128.497055
v -2.128978 0.000021 -128.704910
v -4.158293 0.000021 -129.320496
v -6.028521 0.000021 -130.320160
v -7.667789 0.000022 -131.665466
v -9.013102 0.000022 -133.304733
v -10.012758 0.000022 -135.174973
v -10.628344 0.000023 -137.204285
v -10.836203 0.000023 -139.314697
v -10.628344 0.000023 -141.425110
v -10.012758 0.000024 -143.454422
v -9.013102 0.000024 -145.324646
v -7.667789 0.000024 -146.963913
v -6.028522 0.000025 -148.309235
v -4.158295 0.000025 -149.308884
v -2.128980 0.000025 -149.924469
v -0.018564 20.000025 -150.132324
v -2.128980 20.000025 -149.924469
v -4.158295 20.000025 -149.308884
v -6.028522 20.000025 -148.309235
v -7.667789 20.000023 -146.963913
v -9.013102 20.000023 -145.324646
v -10.012758 20.000023 -143.454422
v -10.628344 20.000023 -141.425110
v -10.836203 20.000023 -139.314697
v -10.628344 20.000023 -137.204285
v -10.012758 20.000023 -135.174973
v -9.013102 20.000023 -133.304733
v -7.667789 20.000023 -131.665466
v -6.028521 20.000021 -130.320160
v -4.158293 20.000021 -129.320496
v -2.128978 20.000021 -128.704910
v -0.018560 20.000021 -128.497055
v 2.091856 20.000021 -128.704910
v 4.121172 20.000021 -129.320496
v 5.991396 20.000021 -130.320160
v 7.630663 20.000023 -131.665482
v 8.975977 20.000023 -133.304749
v 9.975634 20.000023 -135.174973
v 10.591215 20.000023 -137.204285
v 10.799070 20.000023 -139.314697
v 10.591211 20.000023 -141.425125
v 9.975622 20.000023 -143.454437
v 8.975962 20.000023 -145.324661
v 7.630648 20.000023 -146.963928
v 5.991381 20.000025 -148.309235
v 4.121149 20.000025 -149.308899
v 2.091837 20.000025 -149.924469
vt 0.500000 1.000000
vt 0.597544 0.990393
vt 0.691341 0.961940
vt 0.777785 0.915735
vt 0.853553 0.853554
vt 0.915734 0.777786
vt 0.961940 0.691342
vt 0.990393 0.597546
vt 1.000000 0.500000
vt 0.990393 0.402455
vt 0.961940 0.308659
vt 0.915735 0.222215
vt 0.853554 0.146447
vt 0.777785 0.084265
vt 0.691342 0.038060
vt 0.597545 0.009607
vt 0.500000 0.000000
vt 0.402455 0.009607
vt 0.308658 0.038060
vt 0.222215 0.084265
vt 0.146447 0.146447
vt 0.084265 0.222215
vt 0.038060 0.308658
vt 0.009607 0.402455
vt 0.000000 0.500000
vt 0.009607 0.597545
vt 0.038060 0.691342
vt 0.084265 0.777785
vt 0.146447 0.853553
vt 0.222215 0.915735
vt 0.308658 0.961940
vt 0.402455 0.990393
vt 0.500000 1.000000
vt 0.402455 0.990393
vt 0.308658 0.961940
vt 0.222215 0.915735
vt 0.146447 0.853553
vt 0.084265 0.777785
vt 0.038060 0.691342
vt 0.009607 0.597545
vt 0.000000 0.500000
vt 0.009607 0.402455
vt 0.038060 0.308658
vt 0.084265 0.222215
vt 0.146447 0.146447
vt 0.222215 0.084265
vt 0.308658 0.038060
vt 0.402455 0.009607
vt 0.500000 0.000000
vt 0.597545 0.009607
vt 0.691342 0.038060
vt 0.777785 0.084265
vt 0.853554 0.146447
vt 0.915735 0.222215
vt 0.961940 0.308659
vt 0.990393 0.402455
vt 1.000000 0.500000
vt 0.990393 0.597546
vt 0.961940 0.691342
vt 0.915734 0.777786
vt 0.853553 0.853554
vt 0.777785 0.915735
vt 0.691341 0.961940
vt 0.597544 0.990393
vn -0.0000 -1.0000 -0.0000
vn 0.0000 1.0000 0.0000
vn 0.6344 0.0000 -0.7730
vn -0.0980 0.0000 0.9952
vn -0.4714 0.0000 -0.8819
vn 0.4714 0.0000 -0.8819
vn 0.0980 0.0000 0.9952
vn -0.6344 0.0000 -0.7730
vn 0.2903 0.0000 -0.9569
vn 0.2903 0.0000 0.9569
vn -0.7730 0.0000 -0.6344
vn 0.0980 0.0000 -0.9952
vn 0.4714 0.0000 0.8819
vn -0.8819 0.0000 -0.4714
vn 0.6344 0.0000 0.7730
vn -0.9569 0.0000 -0.2903
vn 0.7730 0.0000 0.6344
vn -0.9952 0.0000 -0.0980
vn 0.8819 0.0000 0.4714
vn -0.9952 0.0000 0.0980
vn 0.9569 0.0000 0.2903
vn -0.9569 0.0000 0.2903
vn 0.9952 0.0000 0.0980
vn -0.8819 0.0000 0.4714
vn 0.9952 0.0000 -0.0980
vn -0.7730 0.0000 0.6344
vn 0.9569 0.0000 -0.2903
vn -0.6344 0.0000 0.7730
vn 0.8819 0.0000 -0.4714
vn -0.4714 0.0000 0.8819
vn -0.0980 0.0000 -0.9952
vn 0.7730 0.0000 -0.6344
vn -0.2903 0.0000 0.9569
vn -0.2903 0.0000 -0.9569
usemtl None.002
s 1
f 1/1/1 2/2/1 3/3/1 4/4/1 5/5/1 6/6/1 7/7/1 8/8/1 9/9/1 10/10/1 11/11/1 12/12/1 13/13/1 14/14/1 15/15/1 16/16/1 17/17/1 18/18/1 19/19/1 20/20/1 21/21/1 22/22/1 23/23/1 24/24/1 25/25/1 26/26/1 27/27/1 28/28/1 29/29/1 30/30/1 31/31/1 32/32/1
f 33/33/2 34/34/2 35/35/2 36/36/2 37/37/2 38/38/2 39/39/2 40/40/2 41/41/2 42/42/2 43/43/2 44/44/2 45/45/2 46/46/2 47/47/2 48/48/2 49/49/2 50/50/2 51/51/2 52/52/2 53/53/2 54/54/2 55/55/2 56/56/2 57/57/2 58/58/2 59/59/2 60/60/2 61/61/2 62/62/2 63/63/2 64/64/2
f 5/5/3 4/4/3 62/62/3 61/61/3
f 18/18/4 17/17/4 49/49/4 48/48/4
f 31/31/5 30/30/5 36/36/5 35/35/5
f 4/4/6 3/3/6 63/63/6 62/62/6
f 17/17/7 16/16/7 50/50/7 49/49/7
f 30/30/8 29/29/8 37/37/8 36/36/8
f 3/3/9 2/2/9 64/64/9 63/63/9
f 16/16/10 15/15/10 51/51/10 50/50/10
f 29/29/11 28/28/11 38/38/11 37/37/11
f 2/2/12 1/1/12 33/33/12 64/64/12
f 15/15/13 14/14/13 52/52/13 51/51/13
f 28/28/14 27/27/14 39/39/14 38/38/14
f 14/14/15 13/13/15 53/53/15 52/52/15
f 27/27/16 26/26/16 40/40/16 39/39/16
f 13/13/17 12/12/17 54/54/17 53/53/17
f 26/26/18 25/25/18 41/41/18 40/40/18
f 12/12/19 11/11/19 55/55/19 54/54/19
f 25/25/20 24/24/20 42/42/20 41/41/20
f 11/11/21 10/10/21 56/56/21 55/55/21
f 24/24/22 23/23/22 43/43/22 42/42/22
f 10/10/23 9/9/23 57/57/23 56/56/23
f 23/23/24 22/22/24 44/44/24 43/43/24
f 9/9/25 8/8/25 58/58/25 57/57/25
f 22/22/26 21/21/26 45/45/26 44/44/26
f 8/8/27 7/7/27 59/59/27 58/58/27
f 21/21/28 20/20/28 46/46/28 45/45/28
f 7/7/29 6/6/29 60/60/29 59/59/29
f 20/20/30 19/19/30 47/47/30 46/46/30
f 1/1/31 32/32/31 34/34/31 33/33/31
f 6/6/32 5/5/32 61/61/32 60/60/32
f 19/19/33 18/18/33 48/48/33 47/47/33
f 32/32/34 31/31/34 35/35/34 34/34/34
