# Blender v2.83.4 OBJ File: ''
# www.blender.org
mtllib SegiEmpat.mtl
o SegiEmpat_Circle.005
v -10.081452 0.000013 -79.937813
v 9.940358 0.000013 -79.937813
v 9.940362 0.000010 -59.916008
v -10.081452 0.000010 -59.916008
v -10.081452 20.000011 -79.937813
v -10.081452 20.000008 -59.916000
v 9.940362 20.000008 -59.916000
v 9.940358 20.000011 -79.937813
vt 0.500000 1.000000
vt 1.000000 0.500000
vt 0.500000 0.000000
vt 0.000000 0.500000
vt 0.500000 1.000000
vt 0.000000 0.500000
vt 0.500000 0.000000
vt 1.000000 0.500000
vn 0.0000 -1.0000 -0.0000
vn 0.0000 1.0000 0.0000
vn -1.0000 0.0000 0.0000
vn 0.0000 0.0000 -1.0000
vn 0.0000 -0.0000 1.0000
vn 1.0000 0.0000 -0.0000
usemtl None.003
s 1
f 1/1/1 2/2/1 3/3/1 4/4/1
f 5/5/2 6/6/2 7/7/2 8/8/2
f 1/1/3 4/4/3 6/6/3 5/5/3
f 2/2/4 1/1/4 5/5/4 8/8/4
f 4/4/5 3/3/5 7/7/5 6/6/5
f 3/3/6 2/2/6 8/8/6 7/7/6
