# Blender v2.83.4 OBJ File: ''
# www.blender.org
mtllib SegiLima.mtl
o SegiLima_Circle.006
v -0.013819 0.000007 -45.222343
v 11.273409 0.000006 -37.021694
v 6.962072 0.000003 -23.752764
v -6.989708 0.000003 -23.752764
v -11.301046 0.000006 -37.021694
v -0.013819 20.000008 -45.222343
v -11.301046 20.000008 -37.021694
v -6.989708 20.000004 -23.752760
v 6.962072 20.000004 -23.752760
v 11.273409 20.000008 -37.021694
vt 0.500000 1.000000
vt 0.975528 0.654509
vt 0.793893 0.095492
vt 0.206107 0.095491
vt 0.024472 0.654508
vt 0.500000 1.000000
vt 0.024472 0.654508
vt 0.206107 0.095491
vt 0.793893 0.095492
vt 0.975528 0.654509
vn 0.0000 -1.0000 -0.0000
vn 0.0000 1.0000 0.0000
vn -0.5878 0.0000 -0.8090
vn 0.9511 -0.0000 0.3090
vn -0.9511 -0.0000 0.3090
vn 0.5878 0.0000 -0.8090
vn 0.0000 -0.0000 1.0000
usemtl None.006
s 1
f 1/1/1 2/2/1 3/3/1 4/4/1 5/5/1
f 6/6/2 7/7/2 8/8/2 9/9/2 10/10/2
f 1/1/3 5/5/3 7/7/3 6/6/3
f 3/3/4 2/2/4 10/10/4 9/9/4
f 5/5/5 4/4/5 8/8/5 7/7/5
f 2/2/6 1/1/6 6/6/6 10/10/6
f 4/4/7 3/3/7 9/9/7 8/8/7
