# Blender v2.83.4 OBJ File: 'blender3dbentuk.blend'
# www.blender.org
mtllib jjrgenjang.mtl
o Cube.016_Cube.020
v -0.882083 -0.575000 -0.471094
v 0.249200 -0.575000 -0.466607
v 0.882083 -0.575000 0.471094
v -0.249201 -0.575000 0.466606
v -0.882083 0.875000 -0.471094
v 0.249200 0.875000 -0.466607
v 0.882083 0.875000 0.471094
v -0.249201 0.875000 0.466606
vt 0.784454 0.683326
vt 0.863565 0.566113
vt 0.722154 0.566674
vt 0.643044 0.683887
vt 0.784454 0.683326
vt 0.643044 0.683887
vt 0.722154 0.566674
vt 0.863565 0.566113
vn 0.0000 -1.0000 0.0000
vn 0.0000 1.0000 -0.0000
vn -0.8289 0.0000 0.5594
vn 0.8289 0.0000 -0.5594
vn -0.0040 0.0000 1.0000
vn 0.0040 0.0000 -1.0000
usemtl None
s off
f 4/1/1 1/2/1 2/3/1 3/4/1
f 8/5/2 7/6/2 6/7/2 5/8/2
f 1/2/3 4/1/3 8/5/3 5/8/3
f 3/4/4 2/3/4 6/7/4 7/6/4
f 4/1/5 3/4/5 7/6/5 8/5/5
f 2/3/6 1/2/6 5/8/6 6/7/6
