# Blender v2.83.4 OBJ File: 'blender3dbentuk.blend'
# www.blender.org
mtllib kotak_layang.mtl
o Cube.013_Cube.017
v -0.999505 -0.707143 1.146184
v -0.999505 -0.607143 1.146184
v -0.999505 -0.707143 -0.853816
v -0.999505 -0.607143 -0.853816
v 1.000495 -0.707143 1.146184
v 1.000495 -0.607143 1.146184
v 1.000495 -0.707143 -0.853816
v 1.000495 -0.607143 -0.853816
v -0.000371 -0.607143 1.054926
v -0.381647 -0.607143 0.307398
v -0.600372 -0.607143 -0.135273
v -0.405695 -0.607143 -0.339709
v -0.000372 -0.607143 -0.735273
v 0.404952 -0.607143 -0.339709
v 0.599628 -0.607143 -0.135273
v 0.380905 -0.607143 0.307398
v -0.999505 0.842857 1.146184
v -0.999505 0.842857 -0.853816
v 1.000495 0.842857 -0.853816
v 1.000495 0.842857 1.146184
v -0.000371 0.842857 1.054926
v -0.381647 0.842857 0.307398
v -0.600372 0.842857 -0.135273
v -0.405695 0.842857 -0.339709
v -0.000372 0.842857 -0.735273
v 0.404952 0.842857 -0.339709
v 0.599628 0.842857 -0.135273
v 0.380905 0.842857 0.307398
vt 0.375000 0.000000
vt 0.625000 0.000000
vt 0.625000 0.250000
vt 0.375000 0.250000
vt 0.625000 0.500000
vt 0.375000 0.500000
vt 0.625000 0.750000
vt 0.375000 0.750000
vt 0.625000 1.000000
vt 0.375000 1.000000
vt 0.125000 0.500000
vt 0.125000 0.750000
vt 0.825108 0.589818
vt 0.800774 0.564263
vt 0.800774 0.564263
vt 0.825108 0.589818
vt 0.699443 0.564263
vt 0.675108 0.589818
vt 0.675108 0.589818
vt 0.699443 0.564263
vt 0.750108 0.514818
vt 0.797768 0.645152
vt 0.750108 0.738593
vt 0.702449 0.645152
vt 0.625000 0.500000
vt 0.702449 0.645152
vt 0.750108 0.738593
vt 0.797768 0.645152
vt 0.875000 0.500000
vt 0.875000 0.750000
vt 0.625000 0.750000
vt 0.750108 0.514818
vt 0.625000 1.000000
vt 0.625000 0.250000
vt 0.625000 0.000000
vn -1.0000 0.0000 0.0000
vn 0.0000 0.0000 -1.0000
vn 1.0000 0.0000 0.0000
vn 0.0000 0.0000 1.0000
vn 0.0000 -1.0000 0.0000
vn 0.7242 0.0000 0.6896
vn -0.7242 0.0000 0.6896
vn 0.0000 1.0000 -0.0000
vn -0.8965 0.0000 -0.4430
vn 0.6984 0.0000 0.7157
vn 0.8908 0.0000 -0.4544
vn -0.8908 0.0000 -0.4544
vn -0.6984 0.0000 0.7157
vn 0.8965 0.0000 -0.4430
usemtl None
s off
f 1/1/1 2/2/1 4/3/1 3/4/1
f 3/4/2 4/3/2 8/5/2 7/6/2
f 7/6/3 8/5/3 6/7/3 5/8/3
f 5/8/4 6/7/4 2/9/4 1/10/4
f 3/11/5 7/6/5 5/8/5 1/12/5
f 11/13/6 12/14/6 24/15/6 23/16/6
f 14/17/7 15/18/7 27/19/7 26/20/7
f 14/17/8 13/21/8 12/14/8 11/13/8 10/22/8 9/23/8 16/24/8 15/18/8
f 19/25/8 27/19/8 28/26/8 21/27/8 22/28/8 23/16/8 18/29/8 17/30/8 20/31/8
f 18/29/8 23/16/8 24/15/8 25/32/8 26/20/8 27/19/8 19/25/8
f 2/9/4 6/7/4 20/31/4 17/33/4
f 15/18/9 16/24/9 28/26/9 27/19/9
f 6/7/3 8/5/3 19/25/3 20/31/3
f 12/14/10 13/21/10 25/32/10 24/15/10
f 8/5/2 4/3/2 18/34/2 19/25/2
f 9/23/11 10/22/11 22/28/11 21/27/11
f 16/24/12 9/23/12 21/27/12 28/26/12
f 4/3/1 2/2/1 17/35/1 18/34/1
f 13/21/13 14/17/13 26/20/13 25/32/13
f 10/22/14 11/13/14 23/16/14 22/28/14
