# Blender v2.83.4 OBJ File: 'blender3dbentuk.blend'
# www.blender.org
mtllib kotak_segiempat.mtl
o Cube.002_Cube.004
v -1.000000 0.039019 1.000000
v -1.000000 0.139019 1.000000
v -1.000000 0.039019 -1.000000
v -1.000000 0.139019 -1.000000
v 1.000000 0.039019 1.000000
v 1.000000 0.139019 1.000000
v 1.000000 0.039019 -1.000000
v 1.000000 0.139019 -1.000000
v -0.750000 0.139019 0.750000
v 0.750000 0.139019 0.750000
v 0.750000 0.139019 -0.750000
v -0.750000 0.139019 -0.750000
v -1.000000 1.589019 1.000000
v -1.000000 1.589019 -1.000000
v 1.000000 1.589019 -1.000000
v 1.000000 1.589019 1.000000
v -0.750000 1.589019 0.750000
v 0.750000 1.589019 0.750000
v 0.750000 1.589019 -0.750000
v -0.750000 1.589019 -0.750000
vt 0.375000 0.000000
vt 0.625000 0.000000
vt 0.625000 0.250000
vt 0.375000 0.250000
vt 0.625000 0.500000
vt 0.375000 0.500000
vt 0.625000 0.750000
vt 0.375000 0.750000
vt 0.625000 1.000000
vt 0.375000 1.000000
vt 0.125000 0.500000
vt 0.125000 0.750000
vt 0.843750 0.531250
vt 0.656250 0.531250
vt 0.656250 0.531250
vt 0.843750 0.531250
vt 0.625000 0.250000
vt 0.625000 0.500000
vt 0.843750 0.718750
vt 0.656250 0.718750
vt 0.656250 0.718750
vt 0.843750 0.718750
vt 0.875000 0.500000
vt 0.875000 0.750000
vt 0.625000 0.750000
vt 0.625000 0.000000
vt 0.625000 1.000000
vn -1.0000 0.0000 0.0000
vn 0.0000 0.0000 -1.0000
vn 1.0000 0.0000 0.0000
vn 0.0000 0.0000 1.0000
vn 0.0000 -1.0000 0.0000
vn 0.0000 1.0000 -0.0000
usemtl None
s off
f 1/1/1 2/2/1 4/3/1 3/4/1
f 3/4/2 4/3/2 8/5/2 7/6/2
f 7/6/3 8/5/3 6/7/3 5/8/3
f 5/8/4 6/7/4 2/9/4 1/10/4
f 3/11/5 7/6/5 5/8/5 1/12/5
f 12/13/4 11/14/4 19/15/4 20/16/4
f 8/5/2 4/3/2 14/17/2 15/18/2
f 12/13/6 9/19/6 10/20/6 11/14/6
f 15/18/6 19/15/6 18/21/6 17/22/6 20/16/6 14/23/6 13/24/6 16/25/6
f 14/23/6 20/16/6 19/15/6 15/18/6
f 10/20/2 9/19/2 17/22/2 18/21/2
f 6/7/3 8/5/3 15/18/3 16/25/3
f 9/19/3 12/13/3 20/16/3 17/22/3
f 11/14/1 10/20/1 18/21/1 19/15/1
f 4/3/1 2/2/1 13/26/1 14/17/1
f 2/9/4 6/7/4 16/25/4 13/27/4
