# Blender v2.83.4 OBJ File: 'blender3dbentuk.blend'
# www.blender.org
mtllib layang.mtl
o Cube.014_Cube.018
v -0.000000 -0.629089 1.056865
v -0.381276 -0.629089 0.309338
v -0.600000 -0.629089 -0.133333
v -0.405324 -0.629089 -0.337770
v -0.000000 -0.629089 -0.733333
v 0.405324 -0.629089 -0.337770
v 0.600000 -0.629089 -0.133334
v 0.381277 -0.629089 0.309337
v -0.000000 0.820911 1.056865
v -0.381276 0.820911 0.309338
v -0.600000 0.820911 -0.133333
v -0.405324 0.820911 -0.337770
v -0.000000 0.820911 -0.733333
v 0.405324 0.820911 -0.337770
v 0.600000 0.820911 -0.133334
v 0.381277 0.820911 0.309337
vt 0.699443 0.564263
vt 0.675108 0.589818
vt 0.702449 0.645152
vt 0.750108 0.738593
vt 0.797768 0.645152
vt 0.825108 0.589818
vt 0.800774 0.564263
vt 0.750108 0.514818
vt 0.699443 0.564263
vt 0.750108 0.514818
vt 0.800774 0.564263
vt 0.825108 0.589818
vt 0.797768 0.645152
vt 0.750108 0.738593
vt 0.702449 0.645152
vt 0.675108 0.589818
vn 0.0000 -1.0000 0.0000
vn 0.0000 1.0000 0.0000
vn 0.8965 0.0000 0.4430
vn 0.6984 0.0000 -0.7157
vn -0.7242 0.0000 -0.6896
vn -0.8908 0.0000 0.4544
vn 0.8908 0.0000 0.4544
vn 0.7242 0.0000 -0.6896
vn -0.6984 0.0000 -0.7157
vn -0.8965 0.0000 0.4430
usemtl None
s off
f 6/1/1 7/2/1 8/3/1 1/4/1 2/5/1 3/6/1 4/7/1 5/8/1
f 14/9/2 13/10/2 12/11/2 11/12/2 10/13/2 9/14/2 16/15/2 15/16/2
f 8/3/3 7/2/3 15/16/3 16/15/3
f 6/1/4 5/8/4 13/10/4 14/9/4
f 4/7/5 3/6/5 11/12/5 12/11/5
f 2/5/6 1/4/6 9/14/6 10/13/6
f 1/4/7 8/3/7 16/15/7 9/14/7
f 7/2/8 6/1/8 14/9/8 15/16/8
f 5/8/9 4/7/9 12/11/9 13/10/9
f 3/6/10 2/5/10 10/13/10 11/12/10
