# Blender v2.83.4 OBJ File: 'blender3dbentuk.blend'
# www.blender.org
mtllib lingkaran.mtl
o Cube.005_Cube.009
v 0.000000 -0.353160 -0.796226
v 0.155335 -0.353160 -0.780928
v 0.304702 -0.353160 -0.735618
v 0.442358 -0.353160 -0.662038
v 0.563016 -0.353160 -0.563018
v 0.662038 -0.353160 -0.442360
v 0.735617 -0.353160 -0.304704
v 0.780928 -0.353160 -0.155337
v 0.796226 -0.353160 -0.000001
v 0.780928 -0.353160 0.155336
v 0.735618 -0.353160 0.304702
v 0.662039 -0.353160 0.442360
v 0.563018 -0.353160 0.563017
v 0.442361 -0.353160 0.662038
v 0.304704 -0.353160 0.735618
v 0.155337 -0.353160 0.780927
v 0.000001 -0.353160 0.796227
v -0.155336 -0.353160 0.780927
v -0.304703 -0.353160 0.735618
v -0.442360 -0.353160 0.662039
v -0.563017 -0.353160 0.563017
v -0.662038 -0.353160 0.442360
v -0.735618 -0.353160 0.304703
v -0.780927 -0.353160 0.155336
v -0.796227 -0.353160 -0.000000
v -0.780927 -0.353160 -0.155335
v -0.735617 -0.353160 -0.304702
v -0.662038 -0.353160 -0.442359
v -0.563017 -0.353160 -0.563017
v -0.442360 -0.353160 -0.662038
v -0.304703 -0.353160 -0.735617
v -0.155336 -0.353160 -0.780926
v 0.000000 1.096840 -0.796226
v 0.155335 1.096840 -0.780928
v 0.304702 1.096840 -0.735618
v 0.442358 1.096840 -0.662038
v 0.563016 1.096840 -0.563018
v 0.662038 1.096840 -0.442360
v 0.735617 1.096840 -0.304704
v 0.780928 1.096840 -0.155337
v 0.796226 1.096840 -0.000001
v 0.780928 1.096840 0.155336
v 0.735618 1.096840 0.304702
v 0.662039 1.096840 0.442360
v 0.563018 1.096840 0.563017
v 0.442361 1.096840 0.662038
v 0.304704 1.096840 0.735618
v 0.155337 1.096840 0.780927
v 0.000001 1.096840 0.796227
v -0.155336 1.096840 0.780927
v -0.304703 1.096840 0.735618
v -0.442360 1.096840 0.662039
v -0.563017 1.096840 0.563017
v -0.662038 1.096840 0.442360
v -0.735618 1.096840 0.304703
v -0.780927 1.096840 0.155336
v -0.796227 1.096840 -0.000000
v -0.780927 1.096840 -0.155335
v -0.735617 1.096840 -0.304702
v -0.662038 1.096840 -0.442359
v -0.563017 1.096840 -0.563017
v -0.442360 1.096840 -0.662038
v -0.304703 1.096840 -0.735617
v -0.155336 1.096840 -0.780926
vt 0.652384 0.605583
vt 0.650472 0.625000
vt 0.652384 0.644417
vt 0.658048 0.663088
vt 0.667245 0.680295
vt 0.679623 0.695377
vt 0.694705 0.707755
vt 0.711912 0.716952
vt 0.730583 0.722616
vt 0.750000 0.724528
vt 0.769417 0.722616
vt 0.788088 0.716952
vt 0.805295 0.707755
vt 0.820377 0.695377
vt 0.832755 0.680295
vt 0.841952 0.663088
vt 0.847616 0.644417
vt 0.849528 0.625000
vt 0.847616 0.605583
vt 0.841952 0.586912
vt 0.832755 0.569705
vt 0.820377 0.554623
vt 0.805295 0.542245
vt 0.788088 0.533048
vt 0.769417 0.527384
vt 0.750000 0.525472
vt 0.730583 0.527384
vt 0.711912 0.533048
vt 0.694705 0.542245
vt 0.679623 0.554623
vt 0.667245 0.569705
vt 0.658048 0.586912
vt 0.652384 0.605583
vt 0.658048 0.586912
vt 0.667245 0.569705
vt 0.679623 0.554623
vt 0.694705 0.542245
vt 0.711912 0.533048
vt 0.730583 0.527384
vt 0.750000 0.525472
vt 0.769417 0.527384
vt 0.788088 0.533048
vt 0.805295 0.542245
vt 0.820377 0.554623
vt 0.832755 0.569705
vt 0.841952 0.586912
vt 0.847616 0.605583
vt 0.849528 0.625000
vt 0.847616 0.644417
vt 0.841952 0.663088
vt 0.832755 0.680295
vt 0.820377 0.695377
vt 0.805295 0.707755
vt 0.788088 0.716952
vt 0.769417 0.722616
vt 0.750000 0.724528
vt 0.730583 0.722616
vt 0.711912 0.716952
vt 0.694705 0.707755
vt 0.679623 0.695377
vt 0.667245 0.680295
vt 0.658048 0.663088
vt 0.652384 0.644417
vt 0.650472 0.625000
vn 0.0000 -1.0000 0.0000
vn 0.0000 1.0000 0.0000
vn -0.9569 0.0000 0.2903
vn 0.9569 0.0000 0.2903
vn -0.9952 0.0000 0.0980
vn 0.8819 0.0000 0.4714
vn -0.9952 0.0000 -0.0980
vn 0.7730 0.0000 0.6344
vn -0.9569 0.0000 -0.2903
vn 0.6344 0.0000 0.7730
vn -0.8819 0.0000 -0.4714
vn 0.4714 0.0000 0.8819
vn 0.0980 0.0000 -0.9952
vn -0.7730 0.0000 -0.6344
vn 0.2903 0.0000 0.9569
vn 0.2903 0.0000 -0.9569
vn -0.6344 0.0000 -0.7730
vn 0.0980 0.0000 0.9952
vn 0.4714 0.0000 -0.8819
vn -0.4714 0.0000 -0.8819
vn -0.0980 0.0000 0.9952
vn 0.6344 0.0000 -0.7730
vn -0.2903 0.0000 -0.9569
vn -0.2903 0.0000 0.9569
vn 0.7730 0.0000 -0.6344
vn -0.0980 0.0000 -0.9952
vn -0.4714 0.0000 0.8819
vn 0.8819 0.0000 -0.4714
vn -0.6344 0.0000 0.7730
vn 0.9569 0.0000 -0.2903
vn -0.7730 0.0000 0.6344
vn 0.9952 0.0000 -0.0980
vn -0.8819 0.0000 0.4714
vn 0.9952 0.0000 0.0980
usemtl None
s off
f 8/1/1 9/2/1 10/3/1 11/4/1 12/5/1 13/6/1 14/7/1 15/8/1 16/9/1 17/10/1 18/11/1 19/12/1 20/13/1 21/14/1 22/15/1 23/16/1 24/17/1 25/18/1 26/19/1 27/20/1 28/21/1 29/22/1 30/23/1 31/24/1 32/25/1 1/26/1 2/27/1 3/28/1 4/29/1 5/30/1 6/31/1 7/32/1
f 40/33/2 39/34/2 38/35/2 37/36/2 36/37/2 35/38/2 34/39/2 33/40/2 64/41/2 63/42/2 62/43/2 61/44/2 60/45/2 59/46/2 58/47/2 57/48/2 56/49/2 55/50/2 54/51/2 53/52/2 52/53/2 51/54/2 50/55/2 49/56/2 48/57/2 47/58/2 46/59/2 45/60/2 44/61/2 43/62/2 42/63/2 41/64/2
f 24/17/3 23/16/3 55/50/3 56/49/3
f 11/4/4 10/3/4 42/63/4 43/62/4
f 25/18/5 24/17/5 56/49/5 57/48/5
f 12/5/6 11/4/6 43/62/6 44/61/6
f 26/19/7 25/18/7 57/48/7 58/47/7
f 13/6/8 12/5/8 44/61/8 45/60/8
f 27/20/9 26/19/9 58/47/9 59/46/9
f 14/7/10 13/6/10 45/60/10 46/59/10
f 28/21/11 27/20/11 59/46/11 60/45/11
f 15/8/12 14/7/12 46/59/12 47/58/12
f 2/27/13 1/26/13 33/40/13 34/39/13
f 29/22/14 28/21/14 60/45/14 61/44/14
f 16/9/15 15/8/15 47/58/15 48/57/15
f 3/28/16 2/27/16 34/39/16 35/38/16
f 30/23/17 29/22/17 61/44/17 62/43/17
f 17/10/18 16/9/18 48/57/18 49/56/18
f 4/29/19 3/28/19 35/38/19 36/37/19
f 31/24/20 30/23/20 62/43/20 63/42/20
f 18/11/21 17/10/21 49/56/21 50/55/21
f 5/30/22 4/29/22 36/37/22 37/36/22
f 32/25/23 31/24/23 63/42/23 64/41/23
f 19/12/24 18/11/24 50/55/24 51/54/24
f 6/31/25 5/30/25 37/36/25 38/35/25
f 1/26/26 32/25/26 64/41/26 33/40/26
f 20/13/27 19/12/27 51/54/27 52/53/27
f 7/32/28 6/31/28 38/35/28 39/34/28
f 21/14/29 20/13/29 52/53/29 53/52/29
f 8/1/30 7/32/30 39/34/30 40/33/30
f 22/15/31 21/14/31 53/52/31 54/51/31
f 9/2/32 8/1/32 40/33/32 41/64/32
f 23/16/33 22/15/33 54/51/33 55/50/33
f 10/3/34 9/2/34 41/64/34 42/63/34
