# Blender v2.83.4 OBJ File: 'blender3dbentuk.blend'
# www.blender.org
mtllib segilima.mtl
o Cube.010_Cube.014
v 0.000001 -0.600000 -0.860476
v 0.818360 -0.600000 -0.265901
v 0.505774 -0.600000 0.696139
v -0.505775 -0.600000 0.696139
v -0.818361 -0.600000 -0.265901
v 0.000001 0.850000 -0.860476
v 0.818360 0.850000 -0.265901
v 0.505774 0.850000 0.696139
v -0.505775 0.850000 0.696139
v -0.818361 0.850000 -0.265901
vt 0.750000 0.523347
vt 0.647705 0.597669
vt 0.686778 0.717924
vt 0.813222 0.717924
vt 0.852295 0.597669
vt 0.750000 0.523347
vt 0.852295 0.597669
vt 0.813222 0.717924
vt 0.686778 0.717924
vt 0.647705 0.597669
vn 0.0000 -1.0000 0.0000
vn 0.0000 1.0000 0.0000
vn -0.5878 0.0000 -0.8090
vn 0.0000 0.0000 1.0000
vn 0.5878 0.0000 -0.8090
vn -0.9511 0.0000 0.3090
vn 0.9511 0.0000 0.3090
usemtl None
s off
f 1/1/1 2/2/1 3/3/1 4/4/1 5/5/1
f 6/6/2 10/7/2 9/8/2 8/9/2 7/10/2
f 1/1/3 5/5/3 10/7/3 6/6/3
f 4/4/4 3/3/4 8/9/4 9/8/4
f 2/2/5 1/1/5 6/6/5 7/10/5
f 5/5/6 4/4/6 9/8/6 10/7/6
f 3/3/7 2/2/7 7/10/7 8/9/7
