# Blender v2.83.4 OBJ File: 'blender3dbentuk.blend'
# www.blender.org
mtllib segitiga.mtl
o Cube.008_Cube.012
v -0.000000 -0.565000 -1.000000
v 0.866026 -0.565000 0.500000
v -0.866026 -0.565000 0.500000
v -0.000000 0.885000 -1.000000
v 0.866026 0.885000 0.500000
v -0.866026 0.885000 0.500000
vt 0.641747 0.713096
vt 0.858253 0.713096
vt 0.750000 0.525596
vt 0.641747 0.713096
vt 0.750000 0.525596
vt 0.858253 0.713096
vn 0.0000 -1.0000 0.0000
vn 0.0000 1.0000 0.0000
vn -0.8660 0.0000 -0.5000
vn 0.0000 0.0000 1.0000
vn 0.8660 0.0000 -0.5000
usemtl None
s off
f 2/1/1 3/2/1 1/3/1
f 5/4/2 4/5/2 6/6/2
f 1/3/3 3/2/3 6/6/3 4/5/3
f 3/2/4 2/1/4 5/4/4 6/6/4
f 2/1/5 1/3/5 4/5/5 5/4/5
