# Blender v2.83.4 OBJ File: 'blender3dbentuk.blend'
# www.blender.org
mtllib segiempat.mtl
o Cube_Cube.002
v -0.750000 0.199019 0.750000
v 0.750000 0.199019 0.750000
v 0.750000 0.199019 -0.750000
v -0.750000 0.199019 -0.750000
v -0.750000 1.599020 0.750000
v 0.750000 1.599020 0.750000
v 0.750000 1.599020 -0.750000
v -0.750000 1.599020 -0.750000
vt 0.843750 0.531250
vt 0.656250 0.531250
vt 0.656250 0.718750
vt 0.843750 0.718750
vt 0.843750 0.531250
vt 0.843750 0.718750
vt 0.656250 0.718750
vt 0.656250 0.531250
vn 0.0000 -1.0000 0.0000
vn 0.0000 1.0000 0.0000
vn -1.0000 0.0000 0.0000
vn 1.0000 0.0000 0.0000
vn 0.0000 0.0000 -1.0000
vn 0.0000 0.0000 1.0000
usemtl None
s off
f 4/1/1 3/2/1 2/3/1 1/4/1
f 8/5/2 5/6/2 6/7/2 7/8/2
f 4/1/3 1/4/3 5/6/3 8/5/3
f 2/3/4 3/2/4 7/8/4 6/7/4
f 3/2/5 4/1/5 8/5/5 7/8/5
f 1/4/6 2/3/6 6/7/6 5/6/6
