# Blender v2.83.4 OBJ File: 'blender3dbentuk.blend'
# www.blender.org
mtllib trapesium.mtl
o Cube.018_Cube.022
v -0.491266 -0.575000 -0.491266
v 0.491266 -0.575000 -0.491266
v 0.925120 -0.575000 0.491266
v -0.925121 -0.575000 0.491266
v -0.491266 0.875000 -0.491266
v 0.491266 0.875000 -0.491266
v 0.925120 0.875000 0.491266
v -0.925121 0.875000 0.491266
vt 0.634360 0.683526
vt 0.865640 0.683526
vt 0.811408 0.560710
vt 0.688592 0.560710
vt 0.634360 0.683526
vt 0.688592 0.560710
vt 0.811408 0.560710
vt 0.865640 0.683526
vn 0.0000 -1.0000 0.0000
vn 0.0000 1.0000 -0.0000
vn 0.0000 0.0000 -1.0000
vn -0.9148 0.0000 -0.4039
vn 0.9148 0.0000 -0.4039
vn 0.0000 0.0000 1.0000
usemtl None
s off
f 3/1/1 4/2/1 1/3/1 2/4/1
f 7/5/2 6/6/2 5/7/2 8/8/2
f 2/4/3 1/3/3 5/7/3 6/6/3
f 1/3/4 4/2/4 8/8/4 5/7/4
f 3/1/5 2/4/5 6/6/5 7/5/5
f 4/2/6 3/1/6 7/5/6 8/8/6
