# Blender v2.83.4 OBJ File: 'Puzzle3D.blend'
# www.blender.org
mtllib KotakSegitiga.mtl.mtl
o KotakSegitiga_Cube.005
v 13.601811 0.194916 -117.712479
v 13.601811 -0.194915 -117.712479
v 13.601811 0.194916 -89.867332
v 13.601811 -0.194915 -89.867332
v -14.243339 0.194916 -117.712479
v -14.243339 -0.194915 -117.712479
v -14.243339 0.194916 -89.867332
v -14.243339 -0.194915 -89.867332
v 0.000001 0.194916 -114.137794
v 10.922417 0.194916 -95.219620
v -10.922418 0.194916 -95.219620
v 13.601811 20.194916 -89.867332
v -14.243339 20.194916 -89.867332
v 13.601811 20.194916 -117.712479
v -14.243339 20.194916 -117.712479
v 0.000001 20.194916 -114.137794
v 10.922417 20.194916 -95.219620
v -10.922418 20.194916 -95.219620
vt 0.625000 0.750000
vt 0.625000 0.500000
vt 0.625000 0.500000
vt 0.625000 0.750000
vt 0.375000 0.750000
vt 0.625000 1.000000
vt 0.375000 1.000000
vt 0.375000 0.000000
vt 0.625000 0.000000
vt 0.625000 0.250000
vt 0.375000 0.250000
vt 0.125000 0.500000
vt 0.375000 0.500000
vt 0.125000 0.750000
vt 0.625000 0.000000
vt 0.625000 0.250000
vt 0.875000 0.500000
vt 0.875000 0.750000
vt 0.845184 0.701946
vt 0.747120 0.532094
vt 0.649056 0.701946
vt 0.000000 0.000000
vt 0.000000 0.000000
vt 0.000000 0.000000
vt 0.000000 0.000000
vt 0.000000 0.000000
vt 0.000000 0.000000
vt 0.625000 1.000000
vn 1.0000 0.0000 0.0000
vn 0.0000 0.0000 1.0000
vn -1.0000 0.0000 0.0000
vn 0.0000 -1.0000 0.0000
vn 0.0000 0.0000 -1.0000
vn 0.0000 1.0000 -0.0000
vn 0.8660 0.0000 0.5000
vn -0.8660 0.0000 0.5000
usemtl Material
s off
f 3/1/1 1/2/1 14/3/1 12/4/1
f 4/5/2 3/1/2 7/6/2 8/7/2
f 8/8/3 7/9/3 5/10/3 6/11/3
f 6/12/4 2/13/4 4/5/4 8/14/4
f 2/13/1 1/2/1 3/1/1 4/5/1
f 6/11/5 5/10/5 1/2/5 2/13/5
f 5/10/3 7/9/3 13/15/3 15/16/3
f 14/3/6 15/17/6 13/18/6 18/19/6 16/20/6 17/21/6 12/4/6
f 12/4/6 17/21/6 18/19/6 13/18/6
f 11/22/7 9/23/7 16/24/7 18/25/7
f 9/23/8 10/26/8 17/27/8 16/24/8
f 1/2/5 5/10/5 15/16/5 14/3/5
f 7/6/2 3/1/2 12/4/2 13/28/2
f 10/26/5 11/22/5 18/25/5 17/27/5
