# Blender v2.83.4 OBJ File: 'Puzzle3D.blend'
# www.blender.org
mtllib KotakSegiEmpat.mtl
o KotakSegiEmpat_Cube.004
v 13.804994 0.194917 -83.578018
v 13.804994 -0.194916 -83.578018
v 13.804994 0.194917 -55.732872
v 13.804994 -0.194916 -55.732872
v -14.040157 0.194917 -83.578018
v -14.040157 -0.194916 -83.578018
v -14.040157 0.194917 -55.732872
v -14.040157 -0.194916 -55.732872
v -10.010902 0.194917 -79.937805
v 10.010907 0.194917 -79.937805
v 10.010907 0.194917 -59.916008
v -10.010902 0.194917 -59.916008
v 13.804994 20.194916 -55.732872
v -14.040157 20.194916 -55.732872
v 13.804994 20.194916 -83.578018
v -14.040157 20.194916 -83.578018
v -10.010902 20.194916 -79.937805
v 10.010907 20.194916 -79.937805
v 10.010907 20.194916 -59.916008
v -10.010902 20.194916 -59.916008
vt 0.625000 0.750000
vt 0.625000 0.500000
vt 0.625000 0.500000
vt 0.625000 0.750000
vt 0.375000 0.750000
vt 0.625000 1.000000
vt 0.375000 1.000000
vt 0.375000 0.000000
vt 0.625000 0.000000
vt 0.625000 0.250000
vt 0.375000 0.250000
vt 0.125000 0.500000
vt 0.375000 0.500000
vt 0.125000 0.750000
vt 0.625000 0.000000
vt 0.625000 0.250000
vt 0.875000 0.500000
vt 0.875000 0.750000
vt 0.838824 0.712443
vt 0.838825 0.532683
vt 0.659064 0.532683
vt 0.659064 0.712443
vt 0.000000 0.000000
vt 0.000000 0.000000
vt 0.000000 0.000000
vt 0.000000 0.000000
vt 0.000000 0.000000
vt 0.000000 0.000000
vt 0.000000 0.000000
vt 0.000000 0.000000
vt 0.625000 1.000000
vn 1.0000 0.0000 0.0000
vn 0.0000 0.0000 1.0000
vn -1.0000 0.0000 0.0000
vn 0.0000 -1.0000 0.0000
vn 0.0000 0.0000 -1.0000
vn 0.0000 1.0000 0.0000
usemtl Material
s off
f 3/1/1 1/2/1 15/3/1 13/4/1
f 4/5/2 3/1/2 7/6/2 8/7/2
f 8/8/3 7/9/3 5/10/3 6/11/3
f 6/12/4 2/13/4 4/5/4 8/14/4
f 2/13/1 1/2/1 3/1/1 4/5/1
f 6/11/5 5/10/5 1/2/5 2/13/5
f 5/10/3 7/9/3 14/15/3 16/16/3
f 15/3/6 16/17/6 14/18/6 20/19/6 17/20/6 18/21/6
f 19/22/6 20/19/6 14/18/6 13/4/6 15/3/6 18/21/6
f 11/23/5 12/24/5 20/25/5 19/26/5
f 9/27/2 10/28/2 18/29/2 17/30/2
f 1/2/5 5/10/5 16/16/5 15/3/5
f 7/6/2 3/1/2 13/4/2 14/31/2
f 12/24/1 9/27/1 17/30/1 20/25/1
f 10/28/3 11/23/3 19/26/3 18/29/3
