# Blender v2.83.4 OBJ File: 'Puzzle3D.blend'
# www.blender.org
mtllib Segitiga.mtl
o Segitiga_Circle.004
v 31.154484 -0.000001 -114.137787
v 20.232069 -0.000001 -95.219604
v 42.076900 -0.000001 -95.219604
v 20.232069 20.000000 -95.219604
v 31.154484 20.000000 -114.137787
v 42.076900 20.000000 -95.219604
vt 0.500000 1.000000
vt 0.933013 0.250000
vt 0.066987 0.250000
vt 0.500000 1.000000
vt 0.066987 0.250000
vt 0.933013 0.250000
vn 0.0000 -1.0000 0.0000
vn 0.0000 1.0000 0.0000
vn 0.8660 0.0000 -0.5000
vn 0.0000 0.0000 1.0000
vn -0.8660 0.0000 -0.5000
usemtl None
s off
f 1/1/1 3/2/1 2/3/1
f 5/4/2 4/5/2 6/6/2
f 3/2/3 1/1/3 5/4/3 6/6/3
f 2/3/4 3/2/4 6/6/4 4/5/4
f 1/1/5 2/3/5 4/5/5 5/4/5
