# Blender v2.83.4 OBJ File: 'Puzzle3D.blend'
# www.blender.org
mtllib SegiEmpat.mtl
o SegiEmpat_Circle.005
v 20.127672 0.000000 -79.937805
v 20.127672 0.000000 -59.915997
v 40.149487 0.000000 -59.915997
v 40.149483 0.000000 -79.937805
v 20.127672 19.999998 -59.915997
v 20.127672 19.999998 -79.937805
v 40.149487 19.999998 -59.915997
v 40.149483 19.999998 -79.937805
vt 0.500000 1.000000
vt 1.000000 0.500000
vt 0.500000 0.000000
vt 0.000000 0.500000
vt 0.500000 1.000000
vt 0.000000 0.500000
vt 0.500000 0.000000
vt 1.000000 0.500000
vn 0.0000 -1.0000 0.0000
vn 0.0000 1.0000 -0.0000
vn -1.0000 0.0000 0.0000
vn 0.0000 0.0000 -1.0000
vn 0.0000 0.0000 1.0000
vn 1.0000 0.0000 -0.0000
usemtl None
s off
f 1/1/1 4/2/1 3/3/1 2/4/1
f 6/5/2 5/6/2 7/7/2 8/8/2
f 1/1/3 2/4/3 5/6/3 6/5/3
f 4/2/4 1/1/4 6/5/4 8/8/4
f 2/4/5 3/3/5 7/7/5 5/6/5
f 3/3/6 4/2/6 8/8/6 7/7/6
