# Blender v2.83.4 OBJ File: 'Puzzle3D.blend'
# www.blender.org
mtllib Trapesium.mtl
o Trapesium_Circle.008
v 29.002014 0.000000 63.307125
v 21.713699 0.000000 74.206032
v 47.189232 0.000000 74.206032
v 39.900917 0.000000 63.307125
v 21.713699 19.999996 74.206032
v 29.002014 19.999996 63.307125
v 47.189232 19.999996 74.206032
v 39.900917 19.999996 63.307125
vt 0.500000 1.000000
vt 1.000000 0.500000
vt 0.500000 0.000000
vt 0.000000 0.500000
vt 0.500000 1.000000
vt 0.000000 0.500000
vt 0.500000 0.000000
vt 1.000000 0.500000
vn 0.0000 -1.0000 0.0000
vn 0.0000 1.0000 -0.0000
vn -0.8313 0.0000 -0.5559
vn 0.0000 0.0000 -1.0000
vn 0.0000 0.0000 1.0000
vn 0.8313 0.0000 -0.5559
usemtl None
s off
f 1/1/1 4/2/1 3/3/1 2/4/1
f 6/5/2 5/6/2 7/7/2 8/8/2
f 1/1/3 2/4/3 5/6/3 6/5/3
f 4/2/4 1/1/4 6/5/4 8/8/4
f 2/4/5 3/3/5 7/7/5 5/6/5
f 3/3/6 4/2/6 8/8/6 7/7/6
