# Blender v2.83.4 OBJ File: 'puzzle fix.blend'
# www.blender.org
mtllib puzzle fix.mtl
o Trapesium_Plane.020
v -12.480597 2.499000 209.732895
v 13.009198 2.499000 209.732788
v 5.577558 2.499000 195.390442
v -8.764776 2.499000 195.390442
v -12.480597 17.500999 209.732895
v 13.009198 17.500999 209.732788
v 5.577558 17.500999 195.390442
v -8.764776 17.500999 195.390442
vt 0.064457 0.740999
vt 0.064457 0.740999
vt 0.921079 0.741002
vt 0.921079 0.741002
vt 0.796203 0.259003
vt 0.796203 0.259003
vt 0.314208 0.259003
vt 0.314208 0.259003
vn 0.0000 0.0000 1.0000
vn -0.9680 0.0000 -0.2508
vn 0.8879 0.0000 -0.4601
vn 0.0000 0.0000 -1.0000
vn 0.0000 -1.0000 0.0000
vn 0.0000 1.0000 0.0000
usemtl Material.001
s off
f 2/1/1 6/2/1 5/3/1 1/4/1
f 1/4/2 5/3/2 8/5/2 4/6/2
f 3/7/3 7/8/3 6/2/3 2/1/3
f 4/6/4 8/5/4 7/8/4 3/7/4
f 1/4/5 4/6/5 3/7/5 2/1/5
f 5/3/6 6/2/6 7/8/6 8/5/6
